<?xml version="1.0" encoding="UTF-8" standalone="no"?>
<!-- Created with Inkscape (http://www.inkscape.org/) -->

<svg
   width="0.48252359in"
   height="0.66127461in"
   viewBox="0 0 12.256099 16.796375"
   version="1.1"
   id="svg4907"
   inkscape:version="1.2 (dc2aedaf03, 2022-05-15)"
   sodipodi:docname="logo.svg"
   xmlns:inkscape="http://www.inkscape.org/namespaces/inkscape"
   xmlns:sodipodi="http://sodipodi.sourceforge.net/DTD/sodipodi-0.dtd"
   xmlns="http://www.w3.org/2000/svg"
   xmlns:svg="http://www.w3.org/2000/svg">
  <sodipodi:namedview
     id="namedview4909"
     pagecolor="#000000"
     bordercolor="#666666"
     borderopacity="1.0"
     inkscape:showpageshadow="2"
     inkscape:pageopacity="0"
     inkscape:pagecheckerboard="0"
     inkscape:deskcolor="#b2b2b2"
     inkscape:document-units="mm"
     showgrid="false"
     inkscape:zoom="8.5166289"
     inkscape:cx="22.661549"
     inkscape:cy="17.025516"
     inkscape:window-width="1920"
     inkscape:window-height="1011"
     inkscape:window-x="0"
     inkscape:window-y="32"
     inkscape:window-maximized="1"
     inkscape:current-layer="g9488" />
  <defs
     id="defs4904">
    <clipPath
       id="clipPath28690"
       clipPathUnits="userSpaceOnUse">
      <path
         inkscape:connector-curvature="0"
         id="path28688"
         d="M 45.848,78.438 H 457.852 V 666.02 H 45.848 Z" />
    </clipPath>
    <clipPath
       id="clipPath28700"
       clipPathUnits="userSpaceOnUse">
      <path
         inkscape:connector-curvature="0"
         id="path28698"
         d="M 0,0 H 596 V 842 H 0 Z" />
    </clipPath>
    <clipPath
       id="clipPath28712"
       clipPathUnits="userSpaceOnUse">
      <path
         inkscape:connector-curvature="0"
         id="path28710"
         d="M 0,0 H 596 V 842 H 0 Z" />
    </clipPath>
    <clipPath
       id="clipPath28722"
       clipPathUnits="userSpaceOnUse">
      <path
         inkscape:connector-curvature="0"
         id="path28720"
         d="M 35.211,78.438 H 457.852 V 675.672 H 35.211 Z" />
    </clipPath>
    <clipPath
       id="clipPath28732"
       clipPathUnits="userSpaceOnUse">
      <path
         inkscape:connector-curvature="0"
         id="path28730"
         d="M 0,0 H 596 V 842 H 0 Z" />
    </clipPath>
    <clipPath
       id="clipPath28744"
       clipPathUnits="userSpaceOnUse">
      <path
         inkscape:connector-curvature="0"
         id="path28742"
         d="M 0,0 H 596 V 842 H 0 Z" />
    </clipPath>
  </defs>
  <g
     inkscape:label="Layer 1"
     inkscape:groupmode="layer"
     id="layer1"
     transform="translate(-52.746677,-76.134531)">
    <g
       style="fill:#ffffff;stroke:none;stroke-width:0.666564;stroke-miterlimit:4;stroke-dasharray:none;stroke-opacity:1"
       transform="matrix(0.38116595,0,0,0.38116349,-7.7442267,7.2875507)"
       id="g9488"
       inkscape:export-xdpi="600"
       inkscape:export-ydpi="600">
      <g
         style="fill:#ffffff;stroke:none;stroke-width:0.666564"
         clip-path="url(#clipPath28690)"
         id="g9486"
         transform="matrix(4,0,0,4,-524.33033,-607.96877)">
        <g
           style="fill:#ffffff;stroke:none;stroke-width:0.666564"
           id="g9484">
          <g
             style="fill:#ffffff;stroke:none;stroke-width:0.666564"
             id="g9482">
            <g
               style="fill:#ffffff;stroke:none;stroke-width:0.666564"
               clip-path="url(#clipPath28700)"
               id="g9480">
              <g
                 style="fill:#ffffff;stroke:none;stroke-width:0.666564"
                 id="g9478">
                <g
                   style="fill:#ffffff;stroke:none;stroke-width:0.666564"
                   id="g9476">
                  <g
                     style="fill:#ffffff;stroke:none;stroke-width:0.666564"
                     id="g9474">
                    <g
                       style="fill:#ffffff;stroke:none;stroke-width:0.666564"
                       clip-path="url(#clipPath28712)"
                       id="g9472">
                      <g
                         style="fill:#ffffff;stroke:none;stroke-width:0.666564"
                         id="g9443" />
                      <g
                         style="fill:#ffffff;stroke:none;stroke-width:0.666564"
                         id="g9470">
                        <g
                           style="fill:#ffffff;stroke:none;stroke-width:0.666564"
                           clip-path="url(#clipPath28722)"
                           id="g9468">
                          <g
                             style="fill:#ffffff;stroke:none;stroke-width:0.666564"
                             id="g9466">
                            <g
                               style="fill:#ffffff;stroke:none;stroke-width:0.666564"
                               id="g9464">
                              <g
                                 style="fill:#ffffff;stroke:none;stroke-width:0.666564"
                                 clip-path="url(#clipPath28732)"
                                 id="g9462">
                                <g
                                   style="fill:#ffffff;stroke:none;stroke-width:0.666564"
                                   id="g9460">
                                <g
                                   style="fill:#ffffff;stroke:none;stroke-width:0.666564"
                                   id="g9458">
                                <g
                                   style="fill:#ffffff;stroke:none;stroke-width:0.666564"
                                   id="g9456">
                                <g
                                   style="fill:#ffffff;stroke:none;stroke-width:0.666564"
                                   clip-path="url(#clipPath28744)"
                                   id="g9454">
                                <g
                                   style="fill:#ffffff;stroke:none;stroke-width:0.666564"
                                   id="g9452">
                                <path
                                   inkscape:connector-curvature="0"
                                   id="path9445"
                                   style="fill:#ffffff;fill-opacity:1;fill-rule:evenodd;stroke:none;stroke-width:0.666564"
                                   d="m 172.316,197.148 c -0.109,0 -0.226,0.008 -0.336,0.032 -0.285,0.066 -0.562,0.261 -0.542,0.355 0.011,0.07 0.011,0.059 -0.04,0.059 -0.191,0 -0.64,0.242 -0.64,0.242 0,0 0.32,-0.02 0.344,0.019 0.027,0.04 0.011,0.059 0.043,0.079 0.031,0.019 0.191,0.046 0,0.027 -0.188,-0.02 -0.325,-0.012 -0.325,-0.012 0,0 0.27,0.09 0.446,0.25 0.031,0.028 0.16,0.078 0.172,0.141 0.011,0.105 -0.032,0.058 -0.024,0.164 0.012,0.16 0.039,0.144 -0.019,0.234 -0.059,0.09 0.07,0.063 -0.02,0.235 -0.066,0.113 0.016,0.175 -0.066,0.238 0,0 -0.047,0.035 -0.059,0.047 -0.008,0.012 0.082,-0.004 0.059,0.012 -0.024,0.015 -0.211,0.273 -0.305,0.574 -0.09,0.297 -0.203,0.898 -0.172,1.179 0.023,0.227 0.391,1.559 0.449,1.692 0.055,0.14 0.551,1.207 1.074,1.726 0.145,0.137 0.223,0.25 0.27,0.332 -0.223,0.071 -0.215,0.129 -0.215,0.129 0,0 -0.008,0.055 -0.023,0.055 -0.02,0 -0.055,0.016 -0.09,0.027 -0.027,0.016 -0.137,-0.011 -0.145,0.008 -0.007,0.02 0,-0.027 -0.043,-0.035 -0.039,-0.012 -0.125,-0.016 -0.152,0.031 -0.031,0.043 -0.019,0.071 -0.07,0.078 -0.055,0.008 -0.117,0 -0.141,0.008 -0.086,0.043 -0.144,0.043 -0.184,0.043 -0.035,0 -0.085,0.039 -0.105,0.078 -0.016,0.035 -0.023,0.09 0.004,0.133 -0.035,0.012 -0.125,0.059 -0.176,0.156 -0.062,0.129 0.043,0.274 0.043,0.274 0.11,0.152 0.246,0.105 0.313,0.09 0.007,0.019 0.019,0.043 0.047,0.043 0.042,0.007 0.058,0.132 0.238,0.191 0.07,0.016 0.164,-0.02 0.219,-0.051 0.078,0.059 0.164,0.09 0.195,0.102 0.047,0.019 0.098,-0.039 0.18,-0.02 0.042,0.012 0.039,-0.051 0.066,-0.051 0.094,0 0.102,-0.046 0.094,-0.066 -0.039,-0.066 0.027,-0.133 0,-0.18 -0.047,-0.07 -0.032,-0.121 -0.059,-0.164 -0.012,-0.019 -0.035,-0.043 -0.051,-0.074 0.078,-0.027 0.157,-0.055 0.235,-0.086 0.019,0.086 0.015,0.102 0.043,0.11 0.015,0 0.062,0.007 0.09,0.031 0.011,0.015 0.007,0.012 0.042,0.019 0.036,0.008 0.086,0.047 0.137,0.047 0.188,0.016 0.25,-0.047 0.258,-0.062 0.012,-0.012 0.074,0.008 0.16,-0.051 0.067,-0.047 0.067,-0.082 0.102,-0.086 0.066,-0.012 0.054,-0.117 0.051,-0.141 0.039,0 0.054,-0.007 0.054,-0.007 0,0 -0.148,-0.063 -0.062,-0.04 0.082,0.028 0.472,0.176 0.582,0.165 0.113,-0.016 -0.012,0.019 -0.172,-0.09 -0.164,-0.114 0.226,0.051 0.355,0.062 0.129,0.016 0.157,0.039 -0.023,-0.086 -0.184,-0.121 0.238,0.086 0.351,0.141 0.11,0.051 0.071,0.031 -0.027,-0.066 -0.098,-0.098 0.051,-0.079 0.215,0.023 0.164,0.105 0.273,0.141 0.273,0.141 0,0 -0.351,-0.254 -0.175,-0.164 0.171,0.089 0.609,0.347 0.781,0.429 0.168,0.086 0.219,0.227 0.609,0.461 0.395,0.238 0.426,0.246 0.426,0.246 0,0 0.254,0.297 0.375,0.426 0.125,0.129 0.504,0.594 0.504,0.594 0,0 0.324,0.406 0.558,0.515 0.235,0.114 0.274,0.024 0.415,-0.019 0.144,-0.047 0.023,-0.235 -0.008,-0.293 -0.035,-0.059 0.019,-0.086 -0.02,-0.145 -0.039,-0.054 -0.324,-0.371 -0.324,-0.371 h 0.004 c 0,0 -0.242,-0.324 -0.297,-0.406 -0.051,-0.078 -0.211,-0.262 -0.223,-0.355 -0.023,-0.129 -0.039,-0.153 -0.054,-0.196 -0.032,-0.074 -0.067,-0.043 -0.117,-0.164 -0.043,-0.098 -0.215,-0.191 -0.223,-0.242 -0.016,-0.106 -0.461,-0.598 -0.567,-0.695 -0.078,-0.075 -0.054,-0.067 -0.093,-0.161 -0.043,-0.097 -0.184,-0.152 -0.164,-0.179 0.058,-0.063 -0.028,-0.102 0.043,-0.16 0.023,-0.051 -0.063,-0.223 -0.149,-0.36 -0.086,-0.133 -0.246,-0.34 -0.269,-0.379 -0.024,-0.039 -0.18,-0.191 -0.168,-0.23 0.011,-0.043 -0.086,-0.168 -0.094,-0.234 -0.004,-0.071 -0.086,-0.172 -0.086,-0.235 0,-0.062 -0.141,-0.41 -0.184,-0.48 -0.019,-0.032 -0.156,-0.145 -0.152,-0.211 0.02,-0.156 -0.301,-0.692 -0.449,-0.985 -0.141,-0.277 -0.043,-0.074 -0.442,-1.031 -0.058,-0.129 -0.066,-0.207 -0.105,-0.297 -0.039,-0.093 -0.047,-0.125 -0.063,-0.222 -0.015,-0.094 -0.062,-0.055 -0.062,-0.129 0,-0.075 0,-0.086 -0.035,-0.168 -0.031,-0.086 -0.008,-0.141 -0.055,-0.184 -0.043,-0.043 0.016,-0.183 -0.016,-0.211 -0.035,-0.027 -0.078,-0.187 -0.078,-0.187 0,0 0.055,-0.035 0.012,-0.075 -0.039,-0.039 -0.031,-0.171 -0.031,-0.171 0,0 0.074,-0.004 0.051,-0.02 -0.02,-0.016 -0.086,-0.113 -0.086,-0.125 0.019,0.016 0.086,-0.039 0.086,-0.039 -0.098,-0.066 -0.133,-0.496 -0.485,-0.922 -0.172,-0.203 -0.625,-0.496 -0.758,-0.539 -0.101,-0.035 -0.406,-0.133 -0.746,-0.141 z m 1.075,8.075 c 0.019,0.019 0.039,0.039 0.058,0.054 -0.008,0.032 -0.031,0.098 -0.027,0.129 0.004,0.039 0.047,0.047 0.066,0.071 0.016,0.023 -0.004,0.027 -0.027,0.05 -0.031,0.035 -0.152,0.024 -0.203,0.02 -0.055,0 -0.129,-0.051 -0.172,-0.098 -0.039,-0.043 0.004,-0.011 0,-0.074 0.086,-0.039 0.172,-0.078 0.25,-0.125 0.019,0.012 0.031,0.02 0.039,0.023 0.02,0.008 0.012,-0.011 -0.012,-0.039 0.012,-0.004 0.02,-0.007 0.028,-0.011 m -0.313,0.25 c 0,0 0.008,0.004 0.016,0.019 0.082,0.094 0.176,0.102 0.176,0.094 0,0 -0.02,0.023 0.019,0.051 0,0.004 0.012,0.008 -0.019,0.011 -0.161,0.012 -0.219,-0.011 -0.211,-0.035 0.007,-0.027 0.003,-0.023 0,-0.047 -0.004,-0.019 0.003,-0.019 0.019,-0.031 0.024,-0.019 -0.004,-0.062 0,-0.062 m -0.723,0.175 c 0.036,0.04 0.067,0.051 0.079,0.055 0.019,0.012 0.035,0.129 0,0.137 -0.008,0 -0.039,0.004 -0.071,0.027 -0.035,0.024 -0.039,0.067 -0.015,0.09 0.035,0.051 -0.024,0.027 -0.024,0.051 0.004,0.023 -0.101,-0.02 -0.195,-0.082 -0.063,-0.035 -0.09,-0.141 -0.098,-0.18 0.106,-0.031 0.215,-0.062 0.324,-0.098 m -0.332,0.098 c -0.003,0.051 -0.003,0.172 0.098,0.266 0.004,0.004 0.004,0.004 0.004,0.008 -0.211,0.054 -0.285,-0.059 -0.273,-0.086 0.007,-0.02 -0.043,-0.036 -0.024,-0.071 0.024,-0.039 0.047,-0.011 0.047,-0.047 v -0.027 c 0.051,-0.016 0.098,-0.027 0.148,-0.043" />
                                <g
                                   style="fill:#ffffff;stroke:none;stroke-width:0.666564"
                                   transform="scale(0.999757,-1)"
                                   id="g9449">
                                <path
                                   inkscape:connector-curvature="0"
                                   id="path9447"
                                   style="fill:#ffffff;stroke:none;stroke-width:0.00666644;stroke-linecap:butt;stroke-linejoin:miter;stroke-miterlimit:4;stroke-dasharray:none;stroke-opacity:1"
                                   d="m 172.358,-197.148 c -0.109,0 -0.226,-0.008 -0.336,-0.032 -0.285,-0.066 -0.562,-0.261 -0.543,-0.355 0.012,-0.07 0.012,-0.059 -0.039,-0.059 -0.191,0 -0.641,-0.242 -0.641,-0.242 0,0 0.321,0.02 0.344,-0.019 0.028,-0.04 0.012,-0.059 0.043,-0.079 0.031,-0.019 0.192,-0.046 0,-0.027 -0.187,0.02 -0.324,0.012 -0.324,0.012 0,0 0.269,-0.09 0.445,-0.25 0.032,-0.028 0.16,-0.078 0.172,-0.141 0.012,-0.105 -0.031,-0.058 -0.023,-0.164 0.011,-0.16 0.039,-0.144 -0.02,-0.234 -0.058,-0.09 0.071,-0.063 -0.019,-0.235 -0.067,-0.113 0.015,-0.175 -0.067,-0.238 0,0 -0.047,-0.035 -0.058,-0.047 -0.008,-0.012 0.082,0.004 0.058,-0.012 -0.023,-0.015 -0.211,-0.273 -0.305,-0.574 -0.089,-0.297 -0.203,-0.898 -0.171,-1.179 0.023,-0.227 0.39,-1.559 0.449,-1.692 0.055,-0.14 0.551,-1.207 1.074,-1.726 0.145,-0.137 0.223,-0.25 0.27,-0.332 -0.223,-0.071 -0.215,-0.129 -0.215,-0.129 0,0 -0.008,-0.055 -0.023,-0.055 -0.02,0 -0.055,-0.016 -0.09,-0.027 -0.028,-0.016 -0.137,0.011 -0.145,-0.008 -0.008,-0.02 0,0.027 -0.043,0.035 -0.039,0.012 -0.125,0.016 -0.152,-0.031 -0.031,-0.043 -0.02,-0.071 -0.071,-0.078 -0.054,-0.008 -0.117,0 -0.14,-0.008 -0.086,-0.043 -0.145,-0.043 -0.184,-0.043 -0.035,0 -0.086,-0.039 -0.105,-0.078 -0.016,-0.035 -0.024,-0.09 0.004,-0.133 -0.036,-0.012 -0.125,-0.059 -0.176,-0.156 -0.063,-0.129 0.043,-0.274 0.043,-0.274 0.109,-0.152 0.246,-0.105 0.312,-0.09 0.008,-0.019 0.02,-0.043 0.047,-0.043 0.043,-0.007 0.059,-0.132 0.239,-0.191 0.07,-0.016 0.164,0.02 0.218,0.051 0.079,-0.059 0.164,-0.09 0.196,-0.102 0.047,-0.019 0.097,0.039 0.179,0.02 0.043,-0.012 0.04,0.051 0.067,0.051 0.094,0 0.101,0.046 0.094,0.066 -0.039,0.066 0.027,0.133 0,0.18 -0.047,0.07 -0.032,0.121 -0.059,0.164 -0.012,0.019 -0.035,0.043 -0.051,0.074 0.078,0.027 0.157,0.055 0.235,0.086 0.019,-0.086 0.015,-0.102 0.043,-0.11 0.015,0 0.062,-0.007 0.09,-0.031 0.011,-0.015 0.007,-0.012 0.043,-0.019 0.035,-0.008 0.085,-0.047 0.136,-0.047 0.188,-0.016 0.25,0.047 0.258,0.062 0.012,0.012 0.074,-0.008 0.16,0.051 0.067,0.047 0.067,0.082 0.102,0.086 0.066,0.012 0.055,0.117 0.051,0.141 0.039,0 0.054,0.007 0.054,0.007 0,0 -0.148,0.063 -0.062,0.04 0.082,-0.028 0.473,-0.176 0.582,-0.165 0.113,0.016 -0.012,-0.019 -0.172,0.09 -0.164,0.114 0.227,-0.051 0.356,-0.062 0.129,-0.016 0.156,-0.039 -0.024,0.086 -0.183,0.121 0.239,-0.086 0.352,-0.141 0.109,-0.051 0.07,-0.031 -0.027,0.066 -0.098,0.098 0.05,0.079 0.214,-0.023 0.165,-0.105 0.274,-0.141 0.274,-0.141 0,0 -0.352,0.254 -0.176,0.164 0.172,-0.089 0.61,-0.347 0.782,-0.429 0.168,-0.086 0.218,-0.227 0.609,-0.461 0.395,-0.238 0.426,-0.246 0.426,-0.246 0,0 0.254,-0.297 0.375,-0.426 0.125,-0.129 0.504,-0.594 0.504,-0.594 0,0 0.324,-0.406 0.559,-0.515 0.234,-0.114 0.273,-0.024 0.414,0.019 0.145,0.047 0.023,0.235 -0.008,0.293 -0.035,0.059 0.02,0.086 -0.019,0.145 -0.039,0.054 -0.325,0.371 -0.325,0.371 h 0.004 c 0,0 -0.242,0.324 -0.297,0.406 -0.05,0.078 -0.211,0.262 -0.222,0.355 -0.024,0.129 -0.039,0.153 -0.055,0.196 -0.031,0.074 -0.067,0.043 -0.117,0.164 -0.043,0.098 -0.215,0.191 -0.223,0.242 -0.016,0.106 -0.461,0.598 -0.567,0.695 -0.078,0.075 -0.054,0.067 -0.093,0.161 -0.043,0.097 -0.184,0.152 -0.164,0.179 0.058,0.063 -0.028,0.102 0.043,0.16 0.023,0.051 -0.063,0.223 -0.149,0.36 -0.086,0.133 -0.246,0.34 -0.27,0.379 -0.023,0.039 -0.179,0.191 -0.168,0.23 0.012,0.043 -0.086,0.168 -0.093,0.234 -0.004,0.071 -0.086,0.172 -0.086,0.235 0,0.062 -0.141,0.41 -0.184,0.48 -0.019,0.032 -0.156,0.145 -0.152,0.211 0.019,0.156 -0.301,0.692 -0.45,0.985 -0.14,0.277 -0.043,0.074 -0.441,1.031 -0.059,0.129 -0.067,0.207 -0.106,0.297 -0.039,0.093 -0.047,0.125 -0.062,0.222 -0.016,0.094 -0.063,0.055 -0.063,0.129 0,0.075 0,0.086 -0.035,0.168 -0.031,0.086 -0.008,0.141 -0.055,0.184 -0.043,0.043 0.016,0.183 -0.015,0.211 -0.035,0.027 -0.078,0.187 -0.078,0.187 0,0 0.054,0.035 0.011,0.075 -0.039,0.039 -0.031,0.171 -0.031,0.171 0,0 0.074,0.004 0.051,0.02 -0.02,0.016 -0.086,0.113 -0.086,0.125 0.02,-0.016 0.086,0.039 0.086,0.039 -0.098,0.066 -0.133,0.496 -0.485,0.922 -0.171,0.203 -0.625,0.496 -0.758,0.539 -0.101,0.035 -0.406,0.133 -0.746,0.141 z m 1.075,-8.075 c 0.019,-0.019 0.039,-0.039 0.058,-0.054 -0.007,-0.032 -0.031,-0.098 -0.027,-0.129 0.004,-0.039 0.047,-0.047 0.066,-0.071 0.016,-0.023 -0.003,-0.027 -0.027,-0.05 -0.031,-0.035 -0.152,-0.024 -0.203,-0.02 -0.055,0 -0.129,0.051 -0.172,0.098 -0.039,0.043 0.004,0.011 0,0.074 0.086,0.039 0.172,0.078 0.25,0.125 0.02,-0.012 0.031,-0.02 0.039,-0.023 0.02,-0.008 0.012,0.011 -0.012,0.039 0.012,0.004 0.02,0.007 0.028,0.011 z m -0.313,-0.25 c 0,0 0.008,-0.004 0.016,-0.019 0.082,-0.094 0.176,-0.102 0.176,-0.094 0,0 -0.02,-0.023 0.019,-0.051 0,-0.004 0.012,-0.008 -0.019,-0.011 -0.161,-0.012 -0.219,0.011 -0.211,0.035 0.007,0.027 0.004,0.023 0,0.047 -0.004,0.019 0.004,0.019 0.019,0.031 0.024,0.019 -0.004,0.062 0,0.062 z m -0.723,-0.175 c 0.036,-0.04 0.067,-0.051 0.079,-0.055 0.019,-0.012 0.035,-0.129 0,-0.137 -0.008,0 -0.04,-0.004 -0.071,-0.027 -0.035,-0.024 -0.039,-0.067 -0.015,-0.09 0.035,-0.051 -0.024,-0.027 -0.024,-0.051 0.004,-0.023 -0.101,0.02 -0.195,0.082 -0.063,0.035 -0.09,0.141 -0.098,0.18 0.106,0.031 0.215,0.062 0.324,0.098 z m -0.332,-0.098 c -0.004,-0.051 -0.004,-0.172 0.098,-0.266 0.004,-0.004 0.004,-0.004 0.004,-0.008 -0.211,-0.054 -0.285,0.059 -0.274,0.086 0.008,0.02 -0.043,0.036 -0.023,0.071 0.023,0.039 0.047,0.011 0.047,0.047 v 0.027 c 0.051,0.016 0.097,0.027 0.148,0.043 z" />
                                </g>
                                </g>
                                </g>
                                </g>
                                </g>
                                </g>
                              </g>
                            </g>
                          </g>
                        </g>
                      </g>
                    </g>
                  </g>
                </g>
              </g>
            </g>
          </g>
        </g>
      </g>
    </g>
  </g>
</svg>
